<svg id="Layer_1" data-name="Layer 1" xmlns="http://www.w3.org/2000/svg" viewBox="0 0 376 81.8"><defs><style>.cls-1{fill:#fff;}</style></defs><path class="cls-1" d="M67.2,76a4.92,4.92,0,0,1-1.6,3.8,5.28,5.28,0,0,1-3.9,1.6,4.92,4.92,0,0,1-3.8-1.6A5.07,5.07,0,0,1,56.3,76l.1-21.8V19.7a8,8,0,0,0-1.6-4.9A8.8,8.8,0,0,0,47.7,11a9.79,9.79,0,0,0-4.8,1.4,6.93,6.93,0,0,0-3.1,3.9,8.84,8.84,0,0,0-.7,3.3V75.9a4.92,4.92,0,0,1-1.6,3.8,5.28,5.28,0,0,1-3.9,1.6,4.92,4.92,0,0,1-3.8-1.6,5.07,5.07,0,0,1-1.6-3.8V19.6a8,8,0,0,0-1.6-4.9,8.8,8.8,0,0,0-7.1-3.8,9.79,9.79,0,0,0-4.8,1.4,6.93,6.93,0,0,0-3.1,3.9,8.84,8.84,0,0,0-.7,3.3V75.8a4.92,4.92,0,0,1-1.6,3.8,5.28,5.28,0,0,1-3.9,1.6,4.92,4.92,0,0,1-3.8-1.6A5.07,5.07,0,0,1,0,75.8V19.5a19.25,19.25,0,0,1,3.3-11,18.29,18.29,0,0,1,8.7-7A12.34,12.34,0,0,1,15.7.3,25.61,25.61,0,0,1,19.6,0a19.48,19.48,0,0,1,11,3.3,13,13,0,0,1,3.1,2.6,19.41,19.41,0,0,1,6.5-4.3A12.34,12.34,0,0,1,43.9.4,25.61,25.61,0,0,1,47.8.1a19.48,19.48,0,0,1,11,3.3,18.77,18.77,0,0,1,7,8.5,20.81,20.81,0,0,1,1.6,7.7V76Z"/><path class="cls-1" d="M88.3,77.7a26.08,26.08,0,0,1-4.6-4.2,20.24,20.24,0,0,1-3.2-5.3,21.62,21.62,0,0,1-1.7-8.3V21.4a22.84,22.84,0,0,1,.9-6.3,19.33,19.33,0,0,1,2.7-5.6,20.38,20.38,0,0,1,9.4-7.8A21.62,21.62,0,0,1,100.1,0a20.52,20.52,0,0,1,12,3.7,20.42,20.42,0,0,1,7.7,9.3,21.08,21.08,0,0,1,1.8,8.3V59.8a21,21,0,0,1-3.7,12,26.08,26.08,0,0,1-4.2,4.6,20.24,20.24,0,0,1-5.3,3.2,21.62,21.62,0,0,1-8.3,1.7A20,20,0,0,1,88.3,77.7ZM89.9,60a10,10,0,0,0,1.8,5.9,9.6,9.6,0,0,0,4.6,3.8,11.09,11.09,0,0,0,4.1.8,10,10,0,0,0,5.9-1.8,9.6,9.6,0,0,0,3.8-4.6,11.09,11.09,0,0,0,.8-4.1V21.5a9.74,9.74,0,0,0-1.8-5.8,9.6,9.6,0,0,0-4.6-3.8,10.49,10.49,0,0,0-4.1-.9,11,11,0,0,0-5.9,1.8,9.86,9.86,0,0,0-3.8,4.7,6,6,0,0,0-.6,1.9,14.92,14.92,0,0,0-.2,2.1Z"/><path class="cls-1" d="M146.6,12.7a8.8,8.8,0,0,0-3.8,7.1,9.09,9.09,0,0,0,.8,3.7,14.37,14.37,0,0,0,2.3,4.1,31,31,0,0,0,3.6,4.1c1.5,1.4,3.3,3.1,5.5,5.1,1,.8,2,1.7,3.2,2.7s2.3,2.1,3.4,3.3a45.67,45.67,0,0,1,3.1,3.4c.8,1.1,1.6,2.1,2.4,3.2a24.05,24.05,0,0,1,2.6,5,22.64,22.64,0,0,1,1.6,7.8,19,19,0,0,1-3.4,10.9,19.51,19.51,0,0,1-16,8.7,18.83,18.83,0,0,1-11-3.4,19.63,19.63,0,0,1-7.1-8.5,19.22,19.22,0,0,1-1.4-7.5,5,5,0,0,1,1.6-3.9,5.07,5.07,0,0,1,3.8-1.6,4.92,4.92,0,0,1,3.8,1.6,5.28,5.28,0,0,1,1.6,3.9,9.79,9.79,0,0,0,1.4,4.8,9.5,9.5,0,0,0,3.8,3.1,10.32,10.32,0,0,0,3.4.7,8.72,8.72,0,0,0,4.8-1.4,9.5,9.5,0,0,0,3.1-3.8,10.32,10.32,0,0,0,.7-3.4,9.09,9.09,0,0,0-.8-3.7,14.58,14.58,0,0,0-2.2-4c-1-1.3-2.2-2.6-3.6-4.1a61.17,61.17,0,0,0-5.6-5.1c-1.4-1.3-2.8-2.5-4.3-3.8a54.39,54.39,0,0,1-4.1-4.2,29.94,29.94,0,0,1-6.2-9.4,22.64,22.64,0,0,1-1.6-7.8,19,19,0,0,1,.9-5.8,24.54,24.54,0,0,1,2.4-5.2,20.11,20.11,0,0,1,8.7-7A18.66,18.66,0,0,1,151.5.7a19.25,19.25,0,0,1,11,3.3,20.34,20.34,0,0,1,7.1,8.5,19.53,19.53,0,0,1,1.4,7.7,4.92,4.92,0,0,1-1.6,3.8,5.22,5.22,0,0,1-3.8,1.6,4.92,4.92,0,0,1-3.8-1.6,5.07,5.07,0,0,1-1.6-3.8,9.86,9.86,0,0,0-1.4-4.9,9.15,9.15,0,0,0-3.9-3.1,8.84,8.84,0,0,0-3.3-.7A6,6,0,0,0,146.6,12.7Z"/><path class="cls-1" d="M191.9,17.4a9.68,9.68,0,0,0-.9,4V59.9a11,11,0,0,0,1.8,5.9,11.35,11.35,0,0,0,4.7,3.8,10.5,10.5,0,0,0,9.9-1,9.6,9.6,0,0,0,3.8-4.6,10.49,10.49,0,0,0,.9-4.1V53.4a1.61,1.61,0,0,0-.6-1.3,2,2,0,0,0-1.4-.6h-4.8a4.92,4.92,0,0,1-3.8-1.6,5.28,5.28,0,0,1-1.6-3.9,4.92,4.92,0,0,1,1.6-3.8,5.07,5.07,0,0,1,3.8-1.6h12.2a5.22,5.22,0,0,1,3.9,1.7,5.29,5.29,0,0,1,1.6,3.8v14a20.52,20.52,0,0,1-3.7,12,22,22,0,0,1-9.3,7.8,21.62,21.62,0,0,1-8.3,1.7,21,21,0,0,1-12-3.7,26.08,26.08,0,0,1-4.6-4.2,20.24,20.24,0,0,1-3.2-5.3,21.62,21.62,0,0,1-1.7-8.3V21.6a22.84,22.84,0,0,1,.9-6.3,17.33,17.33,0,0,1,2.8-5.6A21.32,21.32,0,0,1,201.5.2h.1a20.21,20.21,0,0,1,11.9,3.7A30,30,0,0,1,218.1,8,21,21,0,0,1,223,21.5a5.64,5.64,0,0,1-5.4,5.6,5,5,0,0,1-3.8-1.7,5.28,5.28,0,0,1-1.6-3.9,11.19,11.19,0,0,0-1.8-5.8,11.35,11.35,0,0,0-4.7-3.8,9.68,9.68,0,0,0-4-.9,10.55,10.55,0,0,0-3.1.4,10.17,10.17,0,0,0-2.8,1.3A10,10,0,0,0,191.9,17.4Z"/><path class="cls-1" d="M273.6,36.1a19.52,19.52,0,0,1-1.7,2.3c-.6.7-1.3,1.4-1.9,2a2.39,2.39,0,0,0-.7,1.3,1.44,1.44,0,0,0,.3,1.3,19,19,0,0,1,3.8,9c.2,1.3.5,2.9.7,4.7s.5,3.7.8,5.7.5,3.8.8,5.7.5,3.3.7,4.5l.3,2.6a5.19,5.19,0,0,1-1.1,4.1,5.69,5.69,0,0,1-3.6,2.2c-.1.1-.4.1-.8.1a5.52,5.52,0,0,1-5.5-4.7c0-.1-.1-1-.4-2.8s-.6-4-.9-6.4-.7-5-1.1-7.5-.7-4.6-.9-6.3a8.49,8.49,0,0,0-2.9-5.2,8.23,8.23,0,0,0-5.5-2.1h-7.3a1.68,1.68,0,0,0-1.4.6,2,2,0,0,0-.6,1.4V76.2a5,5,0,0,1-1.6,3.9,5.07,5.07,0,0,1-3.8,1.6,5,5,0,0,1-3.9-1.6,5.28,5.28,0,0,1-1.6-3.9V5.9A5.38,5.38,0,0,1,235.5,2,5.35,5.35,0,0,1,239.4.4h15.1a23.13,23.13,0,0,1,21.3,14,27.08,27.08,0,0,1,1.3,4.4,23.16,23.16,0,0,1,.4,4.6A21.42,21.42,0,0,1,273.6,36.1ZM265.7,28a13.59,13.59,0,0,0,.9-4.8,13.09,13.09,0,0,0-2-6.8,12.23,12.23,0,0,0-5.3-4.3,11.49,11.49,0,0,0-4.8-1h-7.7a1.68,1.68,0,0,0-1.4.6,2,2,0,0,0-.6,1.4V33.4a1.61,1.61,0,0,0,.6,1.3,1.82,1.82,0,0,0,1.4.6h7.6a12.32,12.32,0,0,0,6.8-2A11,11,0,0,0,265.7,28Z"/><path class="cls-1" d="M299,11.6a2,2,0,0,0-.6,1.4V33.3a1.68,1.68,0,0,0,.6,1.4,2.17,2.17,0,0,0,1.4.5h14.5a4.92,4.92,0,0,1,3.8,1.6,5.28,5.28,0,0,1,1.6,3.9,4.92,4.92,0,0,1-1.6,3.8,5.22,5.22,0,0,1-3.8,1.6H300.4a1.68,1.68,0,0,0-1.4.6,2,2,0,0,0-.6,1.4V68.4a1.61,1.61,0,0,0,.6,1.3,1.82,1.82,0,0,0,1.4.6h20.1a4.92,4.92,0,0,1,3.8,1.6,5.22,5.22,0,0,1,1.6,3.8,5,5,0,0,1-1.6,3.9,5.07,5.07,0,0,1-3.8,1.6H293a4.92,4.92,0,0,1-3.8-1.6,5.28,5.28,0,0,1-1.6-3.9V5.4a4.92,4.92,0,0,1,1.6-3.8A5.07,5.07,0,0,1,293,0h27.5a4.92,4.92,0,0,1,3.8,1.6,5.22,5.22,0,0,1,1.6,3.8,4.92,4.92,0,0,1-1.6,3.8,5.07,5.07,0,0,1-3.8,1.6H300.4A3.92,3.92,0,0,0,299,11.6Z"/><path class="cls-1" d="M374.2,13.1a21.08,21.08,0,0,1,1.8,8.3V76a4.92,4.92,0,0,1-1.6,3.8,5.07,5.07,0,0,1-3.8,1.6,5.28,5.28,0,0,1-3.9-1.6A5.17,5.17,0,0,1,365,76V21.4a9.74,9.74,0,0,0-1.8-5.8,9.6,9.6,0,0,0-4.6-3.8,10.49,10.49,0,0,0-4.1-.9,11,11,0,0,0-5.9,1.8,9.86,9.86,0,0,0-3.8,4.7,6,6,0,0,0-.6,1.9,14.92,14.92,0,0,0-.2,2.1V76a4.92,4.92,0,0,1-1.6,3.8,5.28,5.28,0,0,1-3.9,1.6,4.92,4.92,0,0,1-3.8-1.6,5.07,5.07,0,0,1-1.6-3.8V21.4a22.84,22.84,0,0,1,.9-6.3,19.33,19.33,0,0,1,2.7-5.6,20.38,20.38,0,0,1,9.4-7.8A21.62,21.62,0,0,1,354.4,0a20.52,20.52,0,0,1,12,3.7A21.43,21.43,0,0,1,374.2,13.1Z"/></svg>